<svg xmlns="http://www.w3.org/2000/svg" height="157.513" width="236.351"><defs><clipPath id="a" clipPathUnits="userSpaceOnUse"><path d="M0 118.135h177.263V0H0z"/></clipPath></defs><g clip-path="url(#a)" transform="matrix(1.33333 0 0 -1.33333 0 157.513)"><path d="M173.762 61.796L88.89 13.94v12.305l-3.175 1.78 88.046 47.812zm-149.28-.834l-.001.001-11.77 6.305 90.61 47.184 69.332-35.24-91.723-48.6zM69.839 19.19l-6.451 3.797v6.2l6.45-3.799zm-11.573 2.95l-1.188.634.41 15.414 1.188-.635zm-2.672 1.427l-1.188.634.409 15.414 1.188-.634zm-2.801 1.495l-1.188.633.41 15.414 1.188-.633zm-2.8 1.495l-1.188.634.41 15.414 1.188-.634zm-2.758 1.472l-1.188.634.41 15.414 1.188-.634zM23.033 44.563c-1.136 0-2.057 1.618-2.057 3.613 0 1.996.92 3.615 2.057 3.615 1.135 0 2.056-1.619 2.056-3.615 0-1.995-.921-3.613-2.056-3.613M14.768 49.6c-1.135 0-2.056 1.618-2.056 3.614 0 1.996.92 3.614 2.056 3.614 1.136 0 2.057-1.618 2.057-3.614 0-1.996-.921-3.614-2.057-3.614m88.08 68.536L8.196 69.401 0 73.525V50.71l5.839-3.283v-.06l74.41-42.522v-.002L88.89 0v9.74l88.372 50.128v20.7z" fill="#7050e5"/><path d="M46.047 28.664l1.188-.634.41 15.414-1.188.634zM48.804 27.19l1.188-.633.41 15.414-1.187.634zM51.605 25.696l1.188-.634.41 15.414-1.188.634zM54.405 24.202l1.188-.635.41 15.414-1.188.635zM57.078 22.774l1.188-.634.41 15.413-1.188.635zM14.768 56.828c-1.136 0-2.056-1.618-2.056-3.614 0-1.996.92-3.615 2.056-3.615 1.136 0 2.057 1.619 2.057 3.615 0 1.996-.921 3.614-2.057 3.614M23.032 51.791c-1.136 0-2.057-1.618-2.057-3.614 0-1.996.921-3.615 2.057-3.615 1.135 0 2.056 1.62 2.056 3.615s-.92 3.614-2.056 3.614" fill="#f9f9f9"/><path d="M63.388 22.988l6.451-3.798v6.198l-6.451 3.798z" fill="#fff"/></g></svg>