<svg width="60" height="59" viewBox="0 0 60 59" fill="none" xmlns="http://www.w3.org/2000/svg">
<path d="M57.6087 35.6742C56.7521 35.6742 56.0578 36.3665 56.0578 37.2206V50.9514C56.0548 53.512 53.9739 55.5875 51.4053 55.5905H7.88978C5.32118 55.5875 3.24024 53.512 3.23721 50.9514V10.6543C3.24024 8.09308 5.32118 6.01815 7.88978 6.01513H21.6597C22.5163 6.01513 23.2106 5.32288 23.2106 4.46874C23.2106 3.61461 22.5163 2.92236 21.6597 2.92236H7.88978C3.60918 2.9272 0.140344 6.38602 0.135498 10.6543V50.9514C0.140344 55.2197 3.60918 58.6785 7.88978 58.6833H51.4053C55.6859 58.6785 59.1547 55.2197 59.1595 50.9514V37.2212C59.1595 36.3671 58.4653 35.6742 57.6087 35.6742Z" fill="#212121"/>
<path d="M24.3859 27.5374L47.0302 4.95776L54.3332 12.2397L31.6888 34.8192L24.3859 27.5374Z" fill="#212121"/>
<path d="M20.691 38.503L28.7616 36.2741L22.9265 30.4558L20.691 38.503Z" fill="#212121"/>
<path d="M56.3524 1.13034C54.8372 -0.37678 52.3844 -0.37678 50.8692 1.13034L49.2245 2.77035L56.5274 10.0522L58.1722 8.41223C59.6843 6.90148 59.6843 4.45566 58.1722 2.94492L56.3524 1.13034Z" fill="#212121"/>
</svg>
