<svg xmlns="http://www.w3.org/2000/svg" height="113.963" width="98.694" viewBox="0 0 98.694 113.963"><defs><clipPath id="a" clipPathUnits="userSpaceOnUse"><path d="M0 85.472h74.021V0H0z"/></clipPath></defs><path d="M49.348 0L0 28.49v56.982l49.348 28.49 49.346-28.49V28.49z" fill="#7050e5"/><g clip-path="url(#a)" transform="matrix(1.33333 0 0 -1.33333 0 113.963)"><path d="M60.447 61.543s-5.718-.058-10.361-3.25C45.442 55.1 37.083 45.87 37.083 45.87s-5.746-6.037-12.771-8.126c-5.05-1.568-10.738-1.278-10.738-1.278V23.928s8.475.29 11.435.87c2.96.581 8.823 1.626 14.164 6.735 5.34 5.107 11.087 10.796 13.003 12.944 1.915 2.148 4.7 4.005 5.804 4.295 1.103.291 2.467.407 2.467.407z" fill="#fff"/><path d="M60.613 23.929H47.61v13.003h13.003z" fill="#f69220"/></g></svg>