<svg xmlns="http://www.w3.org/2000/svg" height="153.397" width="145.684"><defs><clipPath id="a" clipPathUnits="userSpaceOnUse"><path d="M0 115.048h109.263V0H0z"/></clipPath></defs><g clip-path="url(#a)" transform="matrix(1.33333 0 0 -1.33333 0 153.397)"><path d="M61.636 108.802v-3.67c24.876-3.43 43.987-25.11 43.987-50.507 0-28.114-22.87-50.985-50.991-50.985S3.64 26.51 3.64 54.625c0 25.41 19.104 47.072 43.988 50.504v3.674C20.728 105.339 0 82.012 0 54.625 0 24.508 24.508 0 54.632 0c30.123 0 54.63 24.508 54.63 54.625 0 27.37-20.736 50.716-47.626 54.177" fill="#6f50e4"/><path d="M55.383 31.162c-12.82-.299-23.494 9.896-23.793 22.73-.3 12.826 9.889 23.5 22.709 23.798a23.194 23.194 0 0022.72-16.259h3.774a26.807 26.807 0 01-26.58 19.898c-14.821-.346-26.607-12.693-26.262-27.522.346-14.836 12.695-26.628 27.516-26.283a26.811 26.811 0 0125.325 19.9h-3.778a23.194 23.194 0 00-21.631-16.262" fill="#6f50e4"/><path d="M23.995 35.45l-4.638-3.15a41.89 41.89 0 00-6.462 22.325c0 23.021 18.722 41.75 41.737 41.75.584 0 1.168-.015 1.75-.039v16.962h-3.5V99.97c-24.21-.926-43.625-20.908-43.625-45.345a45.526 45.526 0 019.09-27.272l7.652 5.212c-.372.485-.734.98-1.086 1.487a37.73 37.73 0 00-.918 1.398" fill="#ff8b00"/><path d="M73.145 27.91c-14.23-9.854-33.619-6.765-44.13 6.71l-3.017-2.055c11.652-15.139 33.334-18.646 49.22-7.648 6.646 4.601 11.44 11.097 13.871 18.785l-3.462 1.09c-2.186-6.904-6.503-12.742-12.482-16.883" fill="#ff8b00"/><path d="M27.905 36.124c-.313.452-.593.92-.881 1.384l-3.03-2.058c.296-.471.6-.937.919-1.398.35-.507.714-1.002 1.086-1.487l3.016 2.055a32.96 32.96 0 00-1.11 1.504M86.618 48.821C83.41 31.175 66.46 19.432 48.82 22.64c-6.785 1.234-12.828 4.497-17.56 9.435l-3.06-2.086c5.33-5.74 12.22-9.52 19.97-10.929 19.61-3.565 38.463 9.494 42.03 29.112.272 1.502.45 3.005.535 4.505h-3.673c-.08-1.283-.21-2.569-.444-3.855" fill="#ff8b00"/><path d="M64.81 44.648c-5.47-5.473-14.371-5.478-19.837-.01-5.471 5.47-5.471 14.376 0 19.848a14.003 14.003 0 007.909 3.94v3.652c-3.875-.44-7.601-2.137-10.483-5.02-6.893-6.891-6.893-18.101 0-24.993 6.882-6.884 18.092-6.884 24.984.009 2.912 2.91 4.615 6.684 5.032 10.603h-3.642a14.003 14.003 0 00-3.962-8.03" fill="#ff8b00"/><path d="M72.45 56.177h-3.642a14.132 14.132 0 00-.036-3.5h3.643c.124 1.16.14 2.332.035 3.5M90.757 56.177h-.016c.042-.98.05-1.966.014-2.958.042.989.042 1.976.002 2.958M87.127 53.788c-.011-.369-.041-.74-.064-1.11h3.672c.005.082.005.165.009.25l-3.622.16c.01.234 0 .466.005.7M87.101 56.177h-.004l.006-.103-.002.103M90.753 52.926c.004.099-.001.195.002.293-.004-.098-.006-.194-.011-.292z" fill="#ff8b00"/><path d="M90.74 56.177H87.1c.003-.034.002-.068.004-.103a33.639 33.639 0 00.023-2.286c-.005-.234.006-.465-.005-.701l3.622-.16c.005.098.007.194.01.292.038.992.029 1.978-.013 2.958M56.381 68.492v3.645c-1.168.097-2.34.073-3.5-.059v-3.652c1.157.167 2.333.19 3.5.066" fill="#ff8b00"/><path d="M54.631 50.86c-2.08 0-3.77 1.684-3.77 3.752a3.778 3.778 0 003.77 3.783 3.786 3.786 0 003.784-3.783c0-2.068-1.696-3.752-3.784-3.752m0 11.174c-4.084 0-7.41-3.332-7.41-7.422 0-4.072 3.326-7.39 7.41-7.39 4.091 0 7.423 3.318 7.423 7.39 0 4.09-3.332 7.422-7.423 7.422" fill="#6f50e4"/><path d="M56.381 54.735a1.75 1.75 0 10-3.5 0 1.75 1.75 0 003.5 0M56.381 113.298a1.75 1.75 0 10-3.5 0 1.75 1.75 0 003.5 0" fill="#ff8b00"/><path d="M52.881 68.426v-13.69h3.5v13.756a14.133 14.133 0 01-3.5-.066M87.103 56.074l-.006.103H72.331a17.875 17.875 0 00-.028-3.5h14.758c.024.371.055.742.065 1.111.007.34.01.677.007 1.014 0 .424-.013.848-.03 1.272M64.675 44.64c-5.47-5.471-14.376-5.471-19.847 0a13.995 13.995 0 00-3.94 7.91h-3.653c.44-3.875 2.138-7.601 5.02-10.482 6.891-6.893 18.102-6.893 24.994 0a17.558 17.558 0 015.054 10.609h-3.67a13.927 13.927 0 00-3.958-8.036" fill="#ff8b00"/><path d="M72.332 56.177h-3.664c.134-1.164.12-2.34-.037-3.5h3.672c.123 1.163.135 2.335.03 3.5" fill="#ff8b00"/><path d="M67.24 67.052a17.345 17.345 0 01-5.692 3.77V66.81a13.841 13.841 0 003.118-2.33 13.878 13.878 0 002.3-3.048h4.04a17.526 17.526 0 01-3.766 5.62" fill="#6f50e4"/><path d="M99.931 57.501c0 .019-.002.037-.003.056-.045.7-.105 1.398-.182 2.096l-.016.135a44.752 44.752 0 01-.692 4.283l-.003.018a45.09 45.09 0 01-12.05 22.42 45.432 45.432 0 01-25.349 12.976v-3.678a41.513 41.513 0 006.312-1.582l-.006-.019c9.1-3.045 16.935-9.225 22.061-17.391 9.54-15.195 8.053-34.222-2.294-47.675-.07-.092-.145-.185-.217-.277a40.83 40.83 0 00-.992-1.217c-.159-.188-.323-.374-.487-.56-.272-.31-.546-.617-.828-.919a41.76 41.76 0 00-.716-.744c-.248-.253-.496-.507-.752-.755-.19-.185-.385-.366-.579-.547a38.512 38.512 0 00-1.497-1.332 44.122 44.122 0 00-.847-.696c-.23-.185-.46-.371-.695-.551-.293-.226-.595-.443-.896-.662-.233-.17-.464-.345-.7-.51a42.115 42.115 0 00-7.723-4.24c-.126-.052-.252-.102-.378-.152a38.41 38.41 0 00-1.164-.456c-.212-.08-.426-.155-.64-.23a35.979 35.979 0 00-1.745-.577 36.324 36.324 0 00-.713-.212 34.128 34.128 0 00-1.556-.414c-.373-.092-.748-.18-1.123-.262l-.44-.09a39.795 39.795 0 00-1.23-.237c-.109-.019-.217-.034-.326-.053a46.612 46.612 0 00-1.333-.203c-.064-.009-.128-.014-.192-.022a41.826 41.826 0 00-7.953-.266l-.707-3.594a45.405 45.405 0 017.692.096v-.004c.1.01.2.026.298.035.473.049.945.103 1.416.166.205.028.408.059.612.089.411.062.821.126 1.231.198a48.25 48.25 0 011.867.371c.207.047.415.093.621.142.428.101.853.208 1.278.32.17.045.34.089.51.137.48.134.958.276 1.435.427.108.033.216.065.323.099a46.52 46.52 0 011.697.584l.042.015a45.127 45.127 0 018.47 4.146 44.673 44.673 0 012.66 1.82c.291.213.583.424.87.643.27.207.532.419.796.63a39.258 39.258 0 011.608 1.354c.31.272.614.551.915.832.211.196.422.393.628.592.095.092.194.179.288.272.184.182.355.371.535.556.26.265.52.529.771.8.311.333.611.671.91 1.01.174.199.35.395.52.596.372.44.733.886 1.087 1.336l.227.289c6.896 8.922 10.015 19.847 9.344 30.588" fill="#6f50e4"/><path d="M87.703 69.196c-8.041 18.23-29.42 26.521-47.657 18.478-7.262-3.205-13.115-8.543-16.968-15.457l3.425-1.357c3.47 6.01 8.632 10.67 15.012 13.483 16.404 7.236 35.625-.218 42.858-16.616a32.728 32.728 0 002.024-6.297h3.734a36.293 36.293 0 01-2.428 7.766" fill="#6f50e4"/><path d="M55.403 9.263c.37.006.74.012 1.11.027.455.02.907.049 1.358.08.263.02.526.038.788.06.575.052 1.144.116 1.713.188.12.016.243.03.364.047 11.175 1.51 21.067 7.098 28.132 15.216l.036.042a44.348 44.348 0 012.669 3.385l.075.103c.413.582.812 1.174 1.198 1.775l.01.015a45.098 45.098 0 017.165 24.424c0 10.487-3.653 20.699-10.278 28.762l-2.801-2.304a41.325 41.325 0 004.942-7.597l-.017-.008c4.34-8.56 5.58-18.46 3.495-27.874-3.88-17.517-18.298-30.021-35.111-32.333-.116-.016-.233-.03-.35-.044a40.68 40.68 0 00-1.56-.171 46.212 46.212 0 00-1.975-.129 35.447 35.447 0 00-1.032-.026 41.969 41.969 0 00-1.065-.011c-.266.003-.532.01-.797.018a39.695 39.695 0 00-3.092.202c-.295.03-.59.059-.882.095-.367.046-.736.102-1.104.158-.285.043-.572.08-.856.129a42.041 42.041 0 00-8.476 2.405c-.126.05-.25.104-.376.156-.385.159-.768.322-1.15.492-.206.093-.41.19-.615.286-.29.135-.58.274-.867.415-.262.13-.522.264-.781.4a41.265 41.265 0 00-1.558.855c-.166.096-.332.195-.497.293-.331.197-.66.397-.984.602-.126.08-.251.163-.376.244-.351.228-.7.458-1.042.695-.091.063-.18.129-.27.192-.367.259-.732.52-1.092.79l-.152.12a41.972 41.972 0 00-4.577 4.043L21.7 23.377a46.073 46.073 0 014.269-3.94l-.002-.002c.078-.064.159-.122.237-.186.37-.297.745-.59 1.125-.875.165-.125.332-.245.498-.366.336-.245.674-.487 1.016-.724.185-.126.372-.251.558-.376a40.395 40.395 0 011.574-1.006c.374-.23.753-.452 1.134-.668a41.845 41.845 0 011.78-.965c.1-.053.2-.106.3-.156.535-.27 1.073-.528 1.618-.776l.04-.02a45.15 45.15 0 018.94-2.995 45.99 45.99 0 013.175-.573c.356-.052.712-.108 1.07-.152.337-.043.673-.076 1.01-.11.38-.038.762-.076 1.144-.105a42.542 42.542 0 012.187-.111c.288-.008.575-.017.863-.02.132-.001.263-.008.396-.008.258 0 .513.015.77.02M22.66 60.447c3.206 17.64 20.156 29.376 37.79 26.17 7.071-1.285 13.381-4.78 18.248-10.11l2.681 2.454c-5.41 5.92-12.422 9.81-20.279 11.237-19.604 3.563-38.457-9.49-42.02-29.1-1.31-7.2-.438-14.423 2.497-21.045l3.071 2.134c-2.41 5.775-3.122 12.025-1.988 18.26" fill="#6f50e4"/></g></svg>