<svg xmlns="http://www.w3.org/2000/svg" height="270.903" width="333.333" viewBox="0 0 333.333 270.903"><defs><clipPath id="a" clipPathUnits="userSpaceOnUse"><path d="M0 203.177h250V0H0z"/></clipPath></defs><g clip-path="url(#a)" transform="matrix(1.33333 0 0 -1.33333 0 270.903)"><path d="M243.099 199.422a102.808 102.808 0 00-32.568-12.45c-9.36 9.97-22.69 16.205-37.44 16.205-28.328 0-51.3-22.97-51.3-51.287 0-4.026.452-7.94 1.332-11.695-42.628 2.143-80.428 22.554-105.722 53.588a51.11 51.11 0 01-6.947-25.779c0-17.795 9.056-33.504 22.825-42.694a50.9 50.9 0 00-23.231 6.416c-.011-.214-.011-.429-.011-.654 0-24.843 17.682-45.58 41.15-50.284a51.443 51.443 0 00-13.522-1.804c-3.304 0-6.518.326-9.641.925 6.529-20.378 25.463-35.207 47.916-35.625-17.56-13.758-39.673-21.956-63.704-21.956-4.14 0-8.221.237-12.236.711C22.7 8.491 49.653 0 78.623 0c94.344 0 145.936 78.161 145.936 145.935 0 2.221-.045 4.432-.147 6.632A104.331 104.331 0 01250 179.124c-9.19-4.083-19.081-6.835-29.455-8.075 10.589 6.35 18.72 16.396 22.554 28.373" fill="#fff"/></g></svg>