<?xml version="1.0" standalone="no"?>
<!DOCTYPE svg PUBLIC "-//W3C//DTD SVG 20010904//EN"
 "http://www.w3.org/TR/2001/REC-SVG-20010904/DTD/svg10.dtd">
<svg version="1.0" xmlns="http://www.w3.org/2000/svg"
 width="912.000000pt" height="912.000000pt" viewBox="0 0 912.000000 912.000000"
 preserveAspectRatio="xMidYMid meet">
<metadata>
Created by potrace 1.11, written by Peter Selinger 2001-2013
</metadata>
<g transform="translate(0.000000,912.000000) scale(0.100000,-0.100000)"
fill="#000000" stroke="none">
<path d="M3265 8373 c-709 -410 -1596 -922 -1970 -1138 l-680 -392 0 -2283 0
-2282 385 -222 c212 -123 813 -469 1335 -771 523 -301 1237 -714 1587 -916
l638 -368 512 296 c282 162 585 337 673 388 197 114 1850 1068 2375 1371 l385
222 3 2280 2 2281 -92 54 c-51 30 -664 384 -1363 787 -698 403 -1546 892
-1882 1086 -337 195 -614 354 -615 353 -2 0 -583 -336 -1293 -746z m3795
-2463 l0 -660 -22 -4 c-13 -2 -70 -12 -128 -21 -69 -10 -127 -26 -170 -46
-166 -77 -353 -219 -528 -402 -448 -467 -1383 -1387 -1557 -1532 -354 -296
-763 -478 -1306 -584 -221 -43 -472 -68 -919 -91 -113 -5 -242 -12 -288 -15
l-82 -5 0 670 0 670 138 0 c342 0 720 51 1000 136 502 152 1035 508 1485 994
94 102 297 311 452 466 604 605 868 808 1219 939 192 71 461 128 684 143 l22
2 0 -660z"/>
</g>
</svg>
